<mxfile host="app.diagrams.net" modified="2023-11-12T20:16:15.999Z" agent="Mozilla/5.0 (Windows NT 10.0; Win64; x64) AppleWebKit/537.36 (KHTML, like Gecko) Chrome/119.0.0.0 Safari/537.36" etag="MeUFfE4A9ah02m35rz7T" version="22.1.0" type="device">
  <diagram name="Page-1" id="MRBrp2X-gF3je_F1iYl7">
    <mxGraphModel dx="2950" dy="2232" grid="1" gridSize="10" guides="1" tooltips="1" connect="1" arrows="1" fold="1" page="1" pageScale="1" pageWidth="850" pageHeight="1100" math="0" shadow="0">
      <root>
        <mxCell id="0" />
        <mxCell id="1" parent="0" />
        <mxCell id="qgBoBCpYpBripB0x9_Y1-1" value="9" style="html=1;whiteSpace=wrap;labelPosition=center;verticalLabelPosition=top;align=center;verticalAlign=bottom;" vertex="1" parent="1">
          <mxGeometry x="-400" y="-90" width="1640" height="1090" as="geometry" />
        </mxCell>
        <mxCell id="qgBoBCpYpBripB0x9_Y1-2" value="«Subsystem»&lt;br&gt;&lt;b&gt;Back-end&lt;/b&gt;" style="html=1;whiteSpace=wrap;labelPosition=center;verticalLabelPosition=top;align=center;verticalAlign=bottom;fillColor=#dae8fc;strokeColor=#6c8ebf;" vertex="1" parent="1">
          <mxGeometry x="-110" y="-50" width="1000" height="970" as="geometry" />
        </mxCell>
        <mxCell id="qgBoBCpYpBripB0x9_Y1-3" value="«subsystem»&lt;br&gt;&lt;b&gt;Front-end&lt;/b&gt;" style="html=1;whiteSpace=wrap;labelPosition=center;verticalLabelPosition=top;align=center;verticalAlign=bottom;fillColor=#dae8fc;strokeColor=#6c8ebf;" vertex="1" parent="1">
          <mxGeometry x="-360" y="-50" width="210" height="970" as="geometry" />
        </mxCell>
        <mxCell id="qgBoBCpYpBripB0x9_Y1-4" value="«Web-App»&lt;br&gt;&lt;b&gt;public website&lt;/b&gt;" style="html=1;whiteSpace=wrap;fillColor=#d5e8d4;strokeColor=#82b366;" vertex="1" parent="1">
          <mxGeometry x="-310" y="10" width="120" height="70" as="geometry" />
        </mxCell>
        <mxCell id="qgBoBCpYpBripB0x9_Y1-5" value="«Web-App»&lt;br style=&quot;border-color: var(--border-color);&quot;&gt;&lt;b&gt;Administration&lt;/b&gt;" style="html=1;whiteSpace=wrap;fillColor=#d5e8d4;strokeColor=#82b366;" vertex="1" parent="1">
          <mxGeometry x="-307.5" y="110" width="120" height="70" as="geometry" />
        </mxCell>
        <mxCell id="qgBoBCpYpBripB0x9_Y1-6" value="«Web-App»&lt;br style=&quot;border-color: var(--border-color);&quot;&gt;&lt;b&gt;Member&lt;/b&gt;" style="html=1;whiteSpace=wrap;fillColor=#d5e8d4;strokeColor=#82b366;" vertex="1" parent="1">
          <mxGeometry x="-307.5" y="220" width="120" height="60" as="geometry" />
        </mxCell>
        <mxCell id="qgBoBCpYpBripB0x9_Y1-7" value="«Mobile-App»&lt;br style=&quot;border-color: var(--border-color);&quot;&gt;&lt;b&gt;Sales Agent&lt;/b&gt;" style="html=1;whiteSpace=wrap;fillColor=#d5e8d4;strokeColor=#82b366;" vertex="1" parent="1">
          <mxGeometry x="-315" y="570" width="130" height="70" as="geometry" />
        </mxCell>
        <mxCell id="qgBoBCpYpBripB0x9_Y1-8" value="«Mobile-App»&lt;br style=&quot;border-color: var(--border-color);&quot;&gt;&lt;b&gt;Customer App&lt;/b&gt;" style="html=1;whiteSpace=wrap;fillColor=#d5e8d4;strokeColor=#82b366;" vertex="1" parent="1">
          <mxGeometry x="-312.5" y="680" width="125" height="70" as="geometry" />
        </mxCell>
        <mxCell id="qgBoBCpYpBripB0x9_Y1-9" value="«Web-App»&lt;br style=&quot;border-color: var(--border-color);&quot;&gt;&lt;b&gt;Agents&lt;/b&gt;" style="html=1;whiteSpace=wrap;fillColor=#d5e8d4;strokeColor=#82b366;" vertex="1" parent="1">
          <mxGeometry x="-305" y="320" width="115" height="60" as="geometry" />
        </mxCell>
        <mxCell id="qgBoBCpYpBripB0x9_Y1-13" value="«Web-App»&lt;br&gt;&lt;b&gt;Reporting&amp;nbsp;&amp;nbsp;&lt;/b&gt;" style="html=1;whiteSpace=wrap;fillColor=#d5e8d4;strokeColor=#82b366;" vertex="1" parent="1">
          <mxGeometry x="-305" y="410" width="115" height="60" as="geometry" />
        </mxCell>
        <mxCell id="qgBoBCpYpBripB0x9_Y1-14" value="«subsystem»&lt;br&gt;&lt;b&gt;Infrastructure services&lt;/b&gt;" style="html=1;whiteSpace=wrap;labelPosition=center;verticalLabelPosition=top;align=center;verticalAlign=bottom;fillColor=#dae8fc;strokeColor=#6c8ebf;" vertex="1" parent="1">
          <mxGeometry x="930" y="-50" width="260" height="970" as="geometry" />
        </mxCell>
        <mxCell id="qgBoBCpYpBripB0x9_Y1-15" value="«subsystem»&lt;br&gt;&lt;b&gt;insurance services&lt;/b&gt;" style="html=1;whiteSpace=wrap;labelPosition=center;verticalLabelPosition=top;align=center;verticalAlign=bottom;fillColor=#e1d5e7;strokeColor=#9673a6;" vertex="1" parent="1">
          <mxGeometry x="-40" y="-20" width="840" height="260" as="geometry" />
        </mxCell>
        <mxCell id="qgBoBCpYpBripB0x9_Y1-16" value="«subsystem»&lt;br&gt;&lt;b&gt;web contents management services&lt;/b&gt;" style="html=1;whiteSpace=wrap;labelPosition=center;verticalLabelPosition=top;align=center;verticalAlign=bottom;fillColor=#e1d5e7;strokeColor=#9673a6;" vertex="1" parent="1">
          <mxGeometry x="-40" y="280" width="840" height="290" as="geometry" />
        </mxCell>
        <mxCell id="qgBoBCpYpBripB0x9_Y1-17" value="«subsystem»&lt;br&gt;&lt;b&gt;integration APIms&lt;/b&gt;" style="html=1;whiteSpace=wrap;labelPosition=center;verticalLabelPosition=top;align=center;verticalAlign=bottom;fillColor=#e1d5e7;strokeColor=#9673a6;" vertex="1" parent="1">
          <mxGeometry x="-55" y="730" width="890" height="170" as="geometry" />
        </mxCell>
        <mxCell id="qgBoBCpYpBripB0x9_Y1-19" style="edgeStyle=orthogonalEdgeStyle;rounded=0;orthogonalLoop=1;jettySize=auto;html=1;exitX=0.5;exitY=1;exitDx=0;exitDy=0;" edge="1" parent="1" source="qgBoBCpYpBripB0x9_Y1-9" target="qgBoBCpYpBripB0x9_Y1-9">
          <mxGeometry relative="1" as="geometry" />
        </mxCell>
        <mxCell id="qgBoBCpYpBripB0x9_Y1-20" value="&amp;laquo;Annotation&amp;raquo;&lt;br/&gt;&lt;b&gt;Component&lt;/b&gt;" style="html=1;dropTarget=0;whiteSpace=wrap;fillColor=#d5e8d4;strokeColor=#82b366;" vertex="1" parent="1">
          <mxGeometry x="980" y="30" width="180" height="90" as="geometry" />
        </mxCell>
        <mxCell id="qgBoBCpYpBripB0x9_Y1-21" value="" style="shape=module;jettyWidth=8;jettyHeight=4;" vertex="1" parent="qgBoBCpYpBripB0x9_Y1-20">
          <mxGeometry x="1" width="20" height="20" relative="1" as="geometry">
            <mxPoint x="-27" y="7" as="offset" />
          </mxGeometry>
        </mxCell>
        <mxCell id="qgBoBCpYpBripB0x9_Y1-22" value="&amp;laquo;Annotation&amp;raquo;&lt;br/&gt;&lt;b&gt;Component&lt;/b&gt;" style="html=1;dropTarget=0;whiteSpace=wrap;fillColor=#d5e8d4;strokeColor=#82b366;" vertex="1" parent="1">
          <mxGeometry x="980" y="190" width="180" height="90" as="geometry" />
        </mxCell>
        <mxCell id="qgBoBCpYpBripB0x9_Y1-23" value="" style="shape=module;jettyWidth=8;jettyHeight=4;" vertex="1" parent="qgBoBCpYpBripB0x9_Y1-22">
          <mxGeometry x="1" width="20" height="20" relative="1" as="geometry">
            <mxPoint x="-27" y="7" as="offset" />
          </mxGeometry>
        </mxCell>
        <mxCell id="qgBoBCpYpBripB0x9_Y1-24" value="&amp;laquo;Annotation&amp;raquo;&lt;br/&gt;&lt;b&gt;Component&lt;/b&gt;" style="html=1;dropTarget=0;whiteSpace=wrap;fillColor=#d5e8d4;strokeColor=#82b366;" vertex="1" parent="1">
          <mxGeometry x="980" y="360" width="180" height="90" as="geometry" />
        </mxCell>
        <mxCell id="qgBoBCpYpBripB0x9_Y1-25" value="" style="shape=module;jettyWidth=8;jettyHeight=4;" vertex="1" parent="qgBoBCpYpBripB0x9_Y1-24">
          <mxGeometry x="1" width="20" height="20" relative="1" as="geometry">
            <mxPoint x="-27" y="7" as="offset" />
          </mxGeometry>
        </mxCell>
        <mxCell id="qgBoBCpYpBripB0x9_Y1-26" value="&amp;laquo;Annotation&amp;raquo;&lt;br/&gt;&lt;b&gt;Component&lt;/b&gt;" style="html=1;dropTarget=0;whiteSpace=wrap;fillColor=#d5e8d4;strokeColor=#82b366;" vertex="1" parent="1">
          <mxGeometry x="990" y="530" width="180" height="90" as="geometry" />
        </mxCell>
        <mxCell id="qgBoBCpYpBripB0x9_Y1-27" value="" style="shape=module;jettyWidth=8;jettyHeight=4;" vertex="1" parent="qgBoBCpYpBripB0x9_Y1-26">
          <mxGeometry x="1" width="20" height="20" relative="1" as="geometry">
            <mxPoint x="-27" y="7" as="offset" />
          </mxGeometry>
        </mxCell>
        <mxCell id="qgBoBCpYpBripB0x9_Y1-33" style="edgeStyle=orthogonalEdgeStyle;rounded=0;orthogonalLoop=1;jettySize=auto;html=1;exitX=0.5;exitY=1;exitDx=0;exitDy=0;" edge="1" parent="1" source="qgBoBCpYpBripB0x9_Y1-1" target="qgBoBCpYpBripB0x9_Y1-1">
          <mxGeometry relative="1" as="geometry" />
        </mxCell>
        <mxCell id="qgBoBCpYpBripB0x9_Y1-34" value="«API»&lt;br&gt;&lt;b&gt;Quote request&lt;/b&gt;" style="html=1;dropTarget=0;whiteSpace=wrap;" vertex="1" parent="1">
          <mxGeometry x="-20" y="760" width="180" height="90" as="geometry" />
        </mxCell>
        <mxCell id="qgBoBCpYpBripB0x9_Y1-35" value="" style="shape=module;jettyWidth=8;jettyHeight=4;" vertex="1" parent="qgBoBCpYpBripB0x9_Y1-34">
          <mxGeometry x="1" width="20" height="20" relative="1" as="geometry">
            <mxPoint x="-27" y="7" as="offset" />
          </mxGeometry>
        </mxCell>
        <mxCell id="qgBoBCpYpBripB0x9_Y1-36" value="«API»&lt;br&gt;&lt;b&gt;Online policy Issuance&lt;/b&gt;" style="html=1;dropTarget=0;whiteSpace=wrap;" vertex="1" parent="1">
          <mxGeometry x="200" y="760" width="180" height="90" as="geometry" />
        </mxCell>
        <mxCell id="qgBoBCpYpBripB0x9_Y1-37" value="" style="shape=module;jettyWidth=8;jettyHeight=4;" vertex="1" parent="qgBoBCpYpBripB0x9_Y1-36">
          <mxGeometry x="1" width="20" height="20" relative="1" as="geometry">
            <mxPoint x="-27" y="7" as="offset" />
          </mxGeometry>
        </mxCell>
        <mxCell id="qgBoBCpYpBripB0x9_Y1-38" value="«API»&lt;br&gt;&lt;b&gt;SMS Gateway&lt;/b&gt;" style="html=1;dropTarget=0;whiteSpace=wrap;" vertex="1" parent="1">
          <mxGeometry x="630" y="760" width="180" height="90" as="geometry" />
        </mxCell>
        <mxCell id="qgBoBCpYpBripB0x9_Y1-39" value="" style="shape=module;jettyWidth=8;jettyHeight=4;" vertex="1" parent="qgBoBCpYpBripB0x9_Y1-38">
          <mxGeometry x="1" width="20" height="20" relative="1" as="geometry">
            <mxPoint x="-27" y="7" as="offset" />
          </mxGeometry>
        </mxCell>
        <mxCell id="qgBoBCpYpBripB0x9_Y1-40" value="«API»&lt;br&gt;&lt;b&gt;Payment gateway&lt;/b&gt;" style="html=1;dropTarget=0;whiteSpace=wrap;" vertex="1" parent="1">
          <mxGeometry x="410" y="760" width="180" height="90" as="geometry" />
        </mxCell>
        <mxCell id="qgBoBCpYpBripB0x9_Y1-41" value="" style="shape=module;jettyWidth=8;jettyHeight=4;" vertex="1" parent="qgBoBCpYpBripB0x9_Y1-40">
          <mxGeometry x="1" width="20" height="20" relative="1" as="geometry">
            <mxPoint x="-27" y="7" as="offset" />
          </mxGeometry>
        </mxCell>
        <mxCell id="qgBoBCpYpBripB0x9_Y1-42" value="«component»&lt;br&gt;&lt;b&gt;Agents management&lt;/b&gt;" style="html=1;dropTarget=0;whiteSpace=wrap;" vertex="1" parent="1">
          <mxGeometry x="20" y="10" width="180" height="90" as="geometry" />
        </mxCell>
        <mxCell id="qgBoBCpYpBripB0x9_Y1-43" value="" style="shape=module;jettyWidth=8;jettyHeight=4;" vertex="1" parent="qgBoBCpYpBripB0x9_Y1-42">
          <mxGeometry x="1" width="20" height="20" relative="1" as="geometry">
            <mxPoint x="-27" y="7" as="offset" />
          </mxGeometry>
        </mxCell>
        <mxCell id="qgBoBCpYpBripB0x9_Y1-44" value="«Annotation»&lt;br&gt;&lt;b&gt;Financial services&lt;/b&gt;" style="html=1;dropTarget=0;whiteSpace=wrap;" vertex="1" parent="1">
          <mxGeometry x="30" y="600" width="180" height="90" as="geometry" />
        </mxCell>
        <mxCell id="qgBoBCpYpBripB0x9_Y1-45" value="" style="shape=module;jettyWidth=8;jettyHeight=4;" vertex="1" parent="qgBoBCpYpBripB0x9_Y1-44">
          <mxGeometry x="1" width="20" height="20" relative="1" as="geometry">
            <mxPoint x="-27" y="7" as="offset" />
          </mxGeometry>
        </mxCell>
        <mxCell id="qgBoBCpYpBripB0x9_Y1-46" value="«Annotation»&lt;br&gt;&lt;b&gt;payments processor&lt;/b&gt;" style="html=1;dropTarget=0;whiteSpace=wrap;" vertex="1" parent="1">
          <mxGeometry x="280" y="595" width="180" height="90" as="geometry" />
        </mxCell>
        <mxCell id="qgBoBCpYpBripB0x9_Y1-47" value="" style="shape=module;jettyWidth=8;jettyHeight=4;" vertex="1" parent="qgBoBCpYpBripB0x9_Y1-46">
          <mxGeometry x="1" width="20" height="20" relative="1" as="geometry">
            <mxPoint x="-27" y="7" as="offset" />
          </mxGeometry>
        </mxCell>
        <mxCell id="qgBoBCpYpBripB0x9_Y1-48" value="«Annotation»&lt;br&gt;&lt;b&gt;Sales management&lt;br&gt;(sales workflow)&lt;br&gt;&lt;/b&gt;" style="html=1;dropTarget=0;whiteSpace=wrap;" vertex="1" parent="1">
          <mxGeometry x="490" y="590" width="180" height="100" as="geometry" />
        </mxCell>
        <mxCell id="qgBoBCpYpBripB0x9_Y1-49" value="" style="shape=module;jettyWidth=8;jettyHeight=4;" vertex="1" parent="qgBoBCpYpBripB0x9_Y1-48">
          <mxGeometry x="1" width="20" height="20" relative="1" as="geometry">
            <mxPoint x="-27" y="7" as="offset" />
          </mxGeometry>
        </mxCell>
        <mxCell id="qgBoBCpYpBripB0x9_Y1-50" value="«component»&lt;br&gt;&lt;b&gt;Membership management&lt;/b&gt;" style="html=1;dropTarget=0;whiteSpace=wrap;" vertex="1" parent="1">
          <mxGeometry x="290" y="10" width="180" height="90" as="geometry" />
        </mxCell>
        <mxCell id="qgBoBCpYpBripB0x9_Y1-51" value="" style="shape=module;jettyWidth=8;jettyHeight=4;" vertex="1" parent="qgBoBCpYpBripB0x9_Y1-50">
          <mxGeometry x="1" width="20" height="20" relative="1" as="geometry">
            <mxPoint x="-27" y="7" as="offset" />
          </mxGeometry>
        </mxCell>
        <mxCell id="qgBoBCpYpBripB0x9_Y1-53" value="«component»&lt;br&gt;&lt;b&gt;Billing&lt;/b&gt;" style="html=1;dropTarget=0;whiteSpace=wrap;" vertex="1" parent="1">
          <mxGeometry x="550" y="10" width="180" height="90" as="geometry" />
        </mxCell>
        <mxCell id="qgBoBCpYpBripB0x9_Y1-54" value="" style="shape=module;jettyWidth=8;jettyHeight=4;" vertex="1" parent="qgBoBCpYpBripB0x9_Y1-53">
          <mxGeometry x="1" width="20" height="20" relative="1" as="geometry">
            <mxPoint x="-27" y="7" as="offset" />
          </mxGeometry>
        </mxCell>
        <mxCell id="qgBoBCpYpBripB0x9_Y1-55" value="«component»&lt;br&gt;&lt;b&gt;Insurance quotes&lt;/b&gt;" style="html=1;dropTarget=0;whiteSpace=wrap;" vertex="1" parent="1">
          <mxGeometry x="20" y="130" width="180" height="90" as="geometry" />
        </mxCell>
        <mxCell id="qgBoBCpYpBripB0x9_Y1-56" value="" style="shape=module;jettyWidth=8;jettyHeight=4;" vertex="1" parent="qgBoBCpYpBripB0x9_Y1-55">
          <mxGeometry x="1" width="20" height="20" relative="1" as="geometry">
            <mxPoint x="-27" y="7" as="offset" />
          </mxGeometry>
        </mxCell>
        <mxCell id="qgBoBCpYpBripB0x9_Y1-57" value="«component»&lt;br&gt;&lt;b&gt;policy management&lt;/b&gt;" style="html=1;dropTarget=0;whiteSpace=wrap;" vertex="1" parent="1">
          <mxGeometry x="290" y="130" width="180" height="90" as="geometry" />
        </mxCell>
        <mxCell id="qgBoBCpYpBripB0x9_Y1-58" value="" style="shape=module;jettyWidth=8;jettyHeight=4;" vertex="1" parent="qgBoBCpYpBripB0x9_Y1-57">
          <mxGeometry x="1" width="20" height="20" relative="1" as="geometry">
            <mxPoint x="-27" y="7" as="offset" />
          </mxGeometry>
        </mxCell>
        <mxCell id="qgBoBCpYpBripB0x9_Y1-59" value="«component»&lt;br&gt;&lt;b&gt;pricing calculator&lt;/b&gt;" style="html=1;dropTarget=0;whiteSpace=wrap;" vertex="1" parent="1">
          <mxGeometry x="550" y="130" width="180" height="90" as="geometry" />
        </mxCell>
        <mxCell id="qgBoBCpYpBripB0x9_Y1-60" value="" style="shape=module;jettyWidth=8;jettyHeight=4;" vertex="1" parent="qgBoBCpYpBripB0x9_Y1-59">
          <mxGeometry x="1" width="20" height="20" relative="1" as="geometry">
            <mxPoint x="-27" y="7" as="offset" />
          </mxGeometry>
        </mxCell>
        <mxCell id="qgBoBCpYpBripB0x9_Y1-61" value="«component»&lt;br&gt;&lt;b&gt;CMS&lt;/b&gt;" style="html=1;dropTarget=0;whiteSpace=wrap;" vertex="1" parent="1">
          <mxGeometry x="140" y="320" width="180" height="90" as="geometry" />
        </mxCell>
        <mxCell id="qgBoBCpYpBripB0x9_Y1-62" value="" style="shape=module;jettyWidth=8;jettyHeight=4;" vertex="1" parent="qgBoBCpYpBripB0x9_Y1-61">
          <mxGeometry x="1" width="20" height="20" relative="1" as="geometry">
            <mxPoint x="-27" y="7" as="offset" />
          </mxGeometry>
        </mxCell>
        <mxCell id="qgBoBCpYpBripB0x9_Y1-63" value="«component»&lt;br&gt;&lt;b&gt;Account management&lt;/b&gt;" style="html=1;dropTarget=0;whiteSpace=wrap;" vertex="1" parent="1">
          <mxGeometry x="440" y="320" width="180" height="90" as="geometry" />
        </mxCell>
        <mxCell id="qgBoBCpYpBripB0x9_Y1-64" value="" style="shape=module;jettyWidth=8;jettyHeight=4;" vertex="1" parent="qgBoBCpYpBripB0x9_Y1-63">
          <mxGeometry x="1" width="20" height="20" relative="1" as="geometry">
            <mxPoint x="-27" y="7" as="offset" />
          </mxGeometry>
        </mxCell>
        <mxCell id="qgBoBCpYpBripB0x9_Y1-65" value="«component»&lt;br&gt;&lt;b&gt;Banners management&lt;/b&gt;" style="html=1;dropTarget=0;whiteSpace=wrap;" vertex="1" parent="1">
          <mxGeometry x="20" y="440" width="180" height="90" as="geometry" />
        </mxCell>
        <mxCell id="qgBoBCpYpBripB0x9_Y1-66" value="" style="shape=module;jettyWidth=8;jettyHeight=4;" vertex="1" parent="qgBoBCpYpBripB0x9_Y1-65">
          <mxGeometry x="1" width="20" height="20" relative="1" as="geometry">
            <mxPoint x="-27" y="7" as="offset" />
          </mxGeometry>
        </mxCell>
        <mxCell id="qgBoBCpYpBripB0x9_Y1-67" value="«component»&lt;br&gt;&lt;b&gt;Broadcast services&lt;br&gt;(SMS,EMails)&lt;br&gt;&lt;/b&gt;" style="html=1;dropTarget=0;whiteSpace=wrap;" vertex="1" parent="1">
          <mxGeometry x="290" y="440" width="180" height="90" as="geometry" />
        </mxCell>
        <mxCell id="qgBoBCpYpBripB0x9_Y1-68" value="" style="shape=module;jettyWidth=8;jettyHeight=4;" vertex="1" parent="qgBoBCpYpBripB0x9_Y1-67">
          <mxGeometry x="1" width="20" height="20" relative="1" as="geometry">
            <mxPoint x="-27" y="7" as="offset" />
          </mxGeometry>
        </mxCell>
        <mxCell id="qgBoBCpYpBripB0x9_Y1-69" value="«component»&lt;br&gt;&lt;b&gt;SEO&lt;/b&gt;" style="html=1;dropTarget=0;whiteSpace=wrap;" vertex="1" parent="1">
          <mxGeometry x="560" y="440" width="180" height="90" as="geometry" />
        </mxCell>
        <mxCell id="qgBoBCpYpBripB0x9_Y1-70" value="" style="shape=module;jettyWidth=8;jettyHeight=4;" vertex="1" parent="qgBoBCpYpBripB0x9_Y1-69">
          <mxGeometry x="1" width="20" height="20" relative="1" as="geometry">
            <mxPoint x="-27" y="7" as="offset" />
          </mxGeometry>
        </mxCell>
      </root>
    </mxGraphModel>
  </diagram>
</mxfile>
